Coordinates
version=1
nRows=4
nColumns=63
inDegrees=yes

Units are S.I. units (second, meters, Newtons, ...)
If the header above contains a line with 'inDegrees', this indicates whether rotational values are in degrees (yes) or radians (no).

endheader
time	pelvis_tilt	pelvis_list	pelvis_rotation	pelvis_tx	pelvis_ty	pelvis_tz	hip_flexion_r	hip_adduction_r	hip_rotation_r	knee_angle_r	knee_angle_r_beta	ankle_angle_r	subtalar_angle_r	mtp_angle_r	hip_flexion_l	hip_adduction_l	hip_rotation_l	knee_angle_l	knee_angle_l_beta	ankle_angle_l	subtalar_angle_l	mtp_angle_l	L5_S1_Flex_Ext	L5_S1_Lat_Bending	L5_S1_axial_rotation	L4_L5_Flex_Ext	L4_L5_Lat_Bending	L4_L5_axial_rotation	L3_L4_Flex_Ext	L3_L4_Lat_Bending	L3_L4_axial_rotation	L2_L3_Flex_Ext	L2_L3_Lat_Bending	L2_L3_axial_rotation	L1_L2_Flex_Ext	L1_L2_Lat_Bending	L1_L2_axial_rotation	L1_T12_Flex_Ext	L1_T12_Lat_Bending	L1_T12_axial_rotation	Abs_r3	Abs_r2	Abs_r1	Abs_t1	Abs_t2	neck_flexion	neck_bending	neck_rotation	arm_flex_r	arm_add_r	arm_rot_r	elbow_flex_r	pro_sup_r	wrist_flex_r	wrist_dev_r	arm_flex_l	arm_add_l	arm_rot_l	elbow_flex_l	pro_sup_l	wrist_flex_l	wrist_dev_l
      1.04255319	     -3.28145572	     -1.87828768	    101.26616232	      0.08996334	      0.46964802	      0.81697564	     -1.05458785	      2.21558063	     -7.75703953	      1.89005849	      0.03298774	     26.28458028	      9.95658562	      0.00000000	      2.75135373	     -1.64046873	      8.22324201	      6.65126361	      0.11608645	     25.15394646	      2.29498702	      0.00000000	     -0.06567009	     -0.12542890	     -1.51845746	     -0.12195593	     -0.16682043	     -1.61336105	     -0.10788939	     -0.30496782	     -1.61336105	     -0.07505435	     -0.30496782	     -1.32865028	     -0.06098125	     -0.25577460	     -1.23374669	     -0.03752389	     -0.19428936	     -1.13884310	     -0.46907490	     -1.41887675	     -8.44520486	      0.00000000	      0.00000000	     15.49436864	      2.48313785	     16.61444010	      1.97758513	    -11.13899858	     21.50150223	     47.89219437	     88.27280317	     -8.68454056	      6.73454479	      0.12012575	    -16.43035391	     35.41939736	     49.72090686	     88.59485879	     -1.89846797	     20.66462216
      1.06382979	     -3.19584298	     -1.58651135	    100.66932488	      0.09148775	      0.46982643	      0.81553145	     -1.48346569	      2.45371218	     -5.31610395	      1.61819450	      0.02824282	     25.91299369	      7.64370838	      0.00000000	      2.06321079	     -1.82400726	      9.04542678	      6.29689261	      0.10990151	     24.25569214	      0.51923379	      0.00000000	     -0.08615568	     -0.10043902	     -1.44096802	     -0.15999971	     -0.13358389	     -1.53102852	     -0.14154516	     -0.24420743	     -1.53102852	     -0.09846732	     -0.24420743	     -1.26084702	     -0.08000416	     -0.20481525	     -1.17078652	     -0.04922935	     -0.15558004	     -1.08072601	     -0.61540139	     -1.13618626	     -8.01423183	      0.00000000	      0.00000000	     15.14490365	      2.05194464	     17.56669760	      2.99683503	    -11.10259726	     23.31511925	     42.73130669	     87.89886852	     -9.28171907	      7.49055029	     -1.76470914	    -16.63751743	     33.48302548	     50.03511808	     88.25841593	     -3.39717046	     21.57902419
      1.08510638	     -3.09836399	     -1.33359644	    100.01005759	      0.09287977	      0.46978497	      0.81446567	     -1.73690529	      2.61586771	     -4.49094345	      1.58665543	      0.02769236	     25.95605153	      7.60662560	      0.00000000	      1.52589328	     -2.02454515	      8.97818271	      6.07636703	      0.10605261	     23.79659652	     -0.24004531	      0.00000000	     -0.10838473	     -0.07079309	     -1.31844684	     -0.20128129	     -0.09415481	     -1.40084976	     -0.17806528	     -0.17212632	     -1.40084976	     -0.12387291	     -0.17212632	     -1.15364098	     -0.10064606	     -0.14436127	     -1.07123806	     -0.06193104	     -0.10965850	     -0.98883513	     -0.77418131	     -0.80082562	     -7.33280577	      0.00000000	      0.00000000	     14.89764750	      1.81473782	     18.66524627	      4.22362523	    -11.08723089	     25.91508088	     37.66680090	     87.49016832	     -9.38697607	      8.89644202	     -3.06147467	    -16.73813169	     32.81006056	     49.74504260	     87.81915837	     -5.34423778	     20.11996986
      1.10638298	     -3.05633376	     -1.10391449	     99.15946949	      0.09437844	      0.46949287	      0.81357630	     -1.93008250	      2.68923621	     -3.68571391	      1.63641722	      0.02856087	     26.16054804	      7.89659947	      0.00000000	      0.97959452	     -2.15474109	      8.56104188	      5.77196401	      0.10073978	     23.62392854	     -0.85941417	      0.00000000	     -0.13548038	     -0.04794332	     -1.08911500	     -0.25160062	     -0.06376461	     -1.15718469	     -0.22258072	     -0.11656938	     -1.15718469	     -0.15484053	     -0.11656938	     -0.95297563	     -0.12580708	     -0.09776601	     -0.88490594	     -0.07741349	     -0.07426420	     -0.81683625	     -0.96772282	     -0.54234440	     -6.05733091	      0.00000000	      0.00000000	     15.00222473	      1.49326710	     19.16333067	      5.37198323	    -11.05734811	     28.92561926	     32.86499592	     87.32171908	     -8.90619472	     10.69256268	     -3.61157346	    -16.76995089	     33.13315708	     48.92148695	     87.31275838	     -6.33034277	     17.14429806
